PathFileType	4	(X/Y/Z)	E:\Qualisys_Data\Carbon_Farble_Plate\Data\Amateur_Runner\S1\T2\S1T2V23_c3d.trc
DataRate	CameraRate	NumFrames	NumMarkers	Units	OrigDataRate	OrigDataStartFrame	OrigNumFrames
200.000000	200.000000	4	39	mm	200.000000	225	300
Frame#	Time	LSHO			RSHO			LICST			RICST			LASIS			LHEEL			RASIS			LTROC			RTROC			SACR			LTH1			LSK4			LTH2			LTH3			RHM5			LSK2			LTH4			RTH1			LTOE			RTH2			RTH3			RTH4			LLEP			RLEP			LSK1			LSK3			RSK1			LHM5			RSK2			LFT1			RSK3			RSK4			LLME			RLME			RTOE			RHEEL			RFT1			RFT2			LFT2			
		X1	Y1	Z1	X2	Y2	Z2	X3	Y3	Z3	X4	Y4	Z4	X5	Y5	Z5	X6	Y6	Z6	X7	Y7	Z7	X8	Y8	Z8	X9	Y9	Z9	X10	Y10	Z10	X11	Y11	Z11	X12	Y12	Z12	X13	Y13	Z13	X14	Y14	Z14	X15	Y15	Z15	X16	Y16	Z16	X17	Y17	Z17	X18	Y18	Z18	X19	Y19	Z19	X20	Y20	Z20	X21	Y21	Z21	X22	Y22	Z22	X23	Y23	Z23	X24	Y24	Z24	X25	Y25	Z25	X26	Y26	Z26	X27	Y27	Z27	X28	Y28	Z28	X29	Y29	Z29	X30	Y30	Z30	X31	Y31	Z31	X32	Y32	Z32	X33	Y33	Z33	X34	Y34	Z34	X35	Y35	Z35	X36	Y36	Z36	X37	Y37	Z37	X38	Y38	Z38	X39	Y39	Z39	

226	1.125	1420.868286132812	1487.575927734375	-569.1283569335938	1476.824951171875	1511.85302734375	-252.588134765625	1438.721923828125	1037.293212890625	-509.6597290039062	1442.230102539062	1048.119995117188	-212.4759674072266	1483.356811523438	1000.436462402344	-484.3303833007812	1576.808959960938	73.26023864746094	-393.3928527832031	1477.984497070312	998.3467407226562	-221.9557800292969	1387.356323242188	912.101806640625	-530.8286743164062	1361.589111328125	917.699951171875	-185.4756164550781	1320.496948242188	1055.246337890625	-357.7040100097656	1553.321655273438	795.0674438476562	-507.3171691894531	1550.100463867188	232.247314453125	-436.8668823242188	1478.31591796875	762.1171875	-533.4170532226562	1585.667114257812	697.9830932617188	-487.0505981445312	914.4924926757812	247.8451843261719	-235.3317260742188	1540.30517578125	328.181884765625	-479.3359680175781	1506.7216796875	668.8377075195312	-506.7317199707031	1466.36572265625	768.735107421875	-216.7158813476562	1817.90673828125	146.8064575195312	-420.05419921875	1393.296142578125	776.9581909179688	-188.0889587402344	1452.167114257812	668.82275390625	-222.5365447998047	1375.33544921875	679.2664794921875	-201.6103057861328	1584.793212890625	541.879150390625	-466.8814392089844	1359.700927734375	510.358642578125	-235.6616363525391	1625.306274414062	332.6885375976562	-470.0120544433594	1627.4453125	231.9187164306641	-462.1794738769531	1186.049682617188	439.5926818847656	-222.5926818847656	1763.332153320312	86.86758422851562	-476.25439453125	1160.958374023438	515.9378051757812	-239.9565734863281	1596.1689453125	51.22009658813477	-367.693603515625	1092.236450195312	404.815673828125	-237.4365234375	1069.226806640625	478.5726623535156	-263.4917297363281	1616.609619140625	107.9906311035156	-451.6246032714844	959.2659301757812	392.0926208496094	-241.9910583496094	951.3123779296876	196.6713104248047	-309.1497497558594	914.569091796875	445.2510986328125	-284.5485229492188	889.7044067382812	429.5733337402344	-318.270751953125	884.259765625	434.8567199707031	-261.3045959472656	1590.014038085938	42.03409957885742	-420.89306640625
227	1.13	1442.115844726562	1482.241333007812	-570.2886962890625	1496.639038085938	1507.818359375	-253.2509460449219	1457.161865234375	1033.636108398438	-509.940673828125	1461.41650390625	1043.345336914062	-212.6054077148438	1502.056762695312	996.8017578125	-484.6905822753906	1584.265502929688	73.92132568359375	-392.7823486328125	1497.14306640625	993.733642578125	-222.2159423828125	1405.773559570312	907.9326171875	-531.0342407226562	1381.58203125	911.7115478515624	-185.9366149902344	1339.747680664062	1050.608642578125	-357.1732482910156	1573.057983398438	792.0282592773438	-507.4946594238281	1561.349609375	227.7788391113281	-435.9574584960938	1497.953002929688	758.7208862304688	-532.7496948242188	1605.70361328125	695.121337890625	-488.8258666992188	940.4528198242188	252.5596923828125	-234.2177886962891	1553.923828125	323.3731079101562	-478.3418884277344	1526.68603515625	665.4903564453125	-505.3849792480469	1489.06689453125	765.0574951171875	-215.5512847900391	1827.34716796875	132.2337341308594	-417.8741149902344	1415.536987304688	771.7896118164062	-188.1681976318359	1477.2275390625	664.4937133789062	-221.2900390625	1399.950927734375	673.9217529296875	-201.5671691894531	1602.62060546875	537.1079711914062	-467.0252990722656	1388.707885742188	505.2007141113281	-234.8533782958984	1638.94384765625	326.5691223144531	-469.0302734375	1638.876586914062	225.6745452880859	-460.7063293457031	1214.701171875	437.8164672851562	-222.0941314697266	1768.286987304688	75.68419647216797	-473.841064453125	1191.82080078125	514.5313110351562	-240.4568328857422	1600.84228515625	50.68073272705078	-368.0639953613281	1120.606079101562	405.2961730957031	-236.3131713867188	1098.946655273438	479.2065734863281	-263.4228820800781	1624.463989257812	103.9524307250977	-450.3788757324219	987.2060546875	395.79638671875	-241.9773864746094	977.7373657226562	200.3223114013672	-307.2825317382812	943.6159057617188	448.9951477050781	-285.2368774414062	918.9306640625	433.4775390625	-319.2555847167969	913.053955078125	439.2872619628906	-262.173095703125	1594.577514648438	40.9748649597168	-419.6749877929688
228	1.135	1463.749267578125	1476.21533203125	-571.1062622070312	1515.628051757812	1502.861572265625	-253.3428039550781	1475.60009765625	1030.262329101562	-510.0839538574219	1480.2197265625	1038.619262695312	-212.6498870849609	1520.509887695312	993.0585327148438	-484.9629821777344	1590.026733398438	73.05066680908203	-392.7984313964844	1516.263549804688	989.3154296875	-222.3701629638672	1424.392822265625	903.7803955078124	-530.97314453125	1401.529052734375	906.0396728515624	-186.4256286621094	1358.563842773438	1045.601440429688	-357.1836547851562	1592.140014648438	788.1783447265625	-507.3941955566406	1572.400756835938	223.927001953125	-435.0174865722656	1517.621704101562	754.2422485351562	-531.927978515625	1625.58544921875	691.3170776367188	-488.4806213378906	967.7904663085938	257.09423828125	-232.2768096923828	1568.595581054688	319.3233032226562	-476.8502502441406	1546.562255859375	661.6597290039062	-504.7493896484375	1512.03076171875	761.3047485351562	-214.6496887207031	1835.719604492188	117.1337051391602	-416.4089965820312	1437.700317382812	766.760498046875	-188.0519561767578	1502.389892578125	660.4530029296875	-219.7035827636719	1424.50537109375	668.1668701171875	-200.9228515625	1620.203491210938	531.7802124023438	-467.4842224121094	1418.02197265625	499.977294921875	-233.6892395019531	1652.569213867188	320.3822631835938	-468.0326232910156	1649.932739257812	219.4899139404297	-459.3628234863281	1243.838500976562	436.5879821777344	-221.1950073242188	1774.1484375	63.46958923339844	-471.5513000488281	1222.333740234375	512.998779296875	-240.6106262207031	1605.070190429688	48.16859817504883	-367.1574096679688	1149.2548828125	405.5699157714844	-236.1800842285156	1129.311157226562	479.8826904296875	-263.7936706542969	1632.209228515625	98.97425842285156	-449.5317077636719	1015.620910644531	399.0321655273438	-242.2564544677734	1004.783447265625	203.8609313964844	-305.2178344726562	972.441162109375	453.2182006835938	-286.2089538574219	947.721435546875	437.4866333007812	-320.2628173828125	941.9725952148438	443.2830200195312	-263.2837219238281	1598.069091796875	40.28495407104492	-420.7223815917969
229	1.14	1485.427978515625	1470.523193359375	-571.8990478515625	1534.812744140625	1498.213989257812	-253.5894165039062	1493.10107421875	1025.833251953125	-510.7125244140625	1499.090576171875	1033.569580078125	-212.5071868896484	1539.268310546875	989.0247192382812	-485.6119995117188	1594.690551757812	72.73699188232422	-394.473876953125	1535.62744140625	984.285888671875	-222.6695861816406	1442.959228515625	899.251953125	-531.4818725585938	1421.417846679688	900.2454223632812	-187.0256042480469	1376.635009765625	1041.000610351562	-357.0909118652344	1610.821655273438	783.8121948242188	-507.2003479003906	1583.406616210938	219.69970703125	-434.1304321289062	1536.419799804688	750.1190795898438	-532.3268432617188	1644.574584960938	686.7863159179688	-488.6810607910156	995.1004028320312	260.8302612304688	-230.6498718261719	1582.29833984375	315.37255859375	-476.5928039550781	1565.602905273438	657.2222900390625	-505.0663146972656	1534.736694335938	757.3011474609375	-213.8749847412109	1843.979614257812	101.7250213623047	-414.2622680664062	1459.8359375	761.4218139648438	-186.7567596435547	1527.707641601562	656.4364624023438	-218.6043853759766	1449.27294921875	662.5106201171875	-200.1156158447266	1638.189697265625	526.5440673828125	-467.8537902832031	1448.117553710938	494.9989624023438	-232.0311584472656	1666.40869140625	314.42138671875	-466.4988098144531	1660.748413085938	213.9280548095703	-457.9466247558594	1273.536987304688	435.1643676757812	-220.6829681396484	1779.772583007812	51.89181137084961	-470.1201782226562	1253.991821289062	511.8135986328125	-240.9812622070312	1607.483642578125	46.45093154907227	-367.8534545898438	1178.304809570312	406.1531982421875	-235.7934417724609	1160.343383789062	480.2186584472656	-263.5816345214844	1638.135498046875	95.13964080810548	-450.3673095703125	1044.623168945312	402.7476806640625	-241.9363250732422	1031.546508789062	205.3820037841797	-302.2516479492188	1002.477233886719	456.270263671875	-286.926025390625	978.075927734375	440.26025390625	-320.8338317871094	971.3273315429688	447.0233154296875	-264.1635131835938	1601.262817382812	39.15063095092773	-421.4943542480469
